<svg width="1443" height="594" viewBox="0 0 1443 594" fill="none" xmlns="http://www.w3.org/2000/svg">
<path d="M1442 0H0V594H1442V0Z" fill="url(#paint0_linear_326_5)"/>
<path opacity="0.07" d="M264 366.592V8.192H363.328L506.688 242.176H454.464L593.728 8.192H693.056L694.08 366.592H584L582.976 174.08H600.384L505.152 334.336H451.904L352.576 174.08H374.08V366.592H264ZM886.132 374.784C856.095 374.784 827.081 371.371 799.092 364.544C771.103 357.717 748.063 348.843 729.972 337.92L768.884 249.856C785.951 259.755 804.895 267.776 825.716 273.92C846.879 279.723 867.359 282.624 887.156 282.624C898.761 282.624 907.807 281.941 914.292 280.576C921.119 278.869 926.068 276.651 929.14 273.92C932.212 270.848 933.748 267.264 933.748 263.168C933.748 256.683 930.164 251.563 922.996 247.808C915.828 244.053 906.271 240.981 894.324 238.592C882.719 235.861 869.919 233.131 855.924 230.4C841.929 227.328 827.764 223.403 813.428 218.624C799.433 213.845 786.463 207.531 774.516 199.68C762.911 191.829 753.524 181.589 746.356 168.96C739.188 155.989 735.604 139.947 735.604 120.832C735.604 98.645 741.748 78.507 754.036 60.416C766.665 41.984 785.268 27.307 809.844 16.384C834.761 5.461 865.652 0 902.516 0C926.751 0 950.644 2.55999 974.196 7.67999C997.746 12.8 1018.91 20.651 1037.69 31.232L1001.34 118.784C983.586 109.909 966.345 103.253 949.62 98.816C933.236 94.379 917.193 92.16 901.492 92.16C889.887 92.16 880.671 93.184 873.844 95.232C867.017 97.28 862.068 100.011 858.996 103.424C856.265 106.837 854.9 110.592 854.9 114.688C854.9 120.832 858.484 125.781 865.652 129.536C872.82 132.949 882.207 135.851 893.812 138.24C905.759 140.629 918.729 143.189 932.724 145.92C947.06 148.651 961.225 152.405 975.22 157.184C989.216 161.963 1002.02 168.277 1013.62 176.128C1025.57 183.979 1035.13 194.219 1042.3 206.848C1049.46 219.477 1053.05 235.179 1053.05 253.952C1053.05 275.797 1046.73 295.936 1034.1 314.368C1021.82 332.459 1003.38 347.136 978.804 358.4C954.228 369.323 923.337 374.784 886.132 374.784ZM1089 366.592V8.192H1188.33L1370.6 226.304H1324.52V8.192H1442.28V366.592H1342.96L1160.68 148.48H1206.76V366.592H1089Z" fill="white"/>
<defs>
<linearGradient id="paint0_linear_326_5" x1="3.70411e-06" y1="39.6" x2="1263.19" y2="360.192" gradientUnits="userSpaceOnUse">
<stop stop-color="#BF3130"/>
<stop offset="1" stop-color="#F89337"/>
</linearGradient>
</defs>
</svg>
